<svg width="24" height="24" viewBox="0 0 24 24" fill="none" xmlns="http://www.w3.org/2000/svg">
<path d="M13.0002 11.5C13.0002 11.1022 13.1582 10.7206 13.4395 10.4393C13.7208 10.158 14.1024 10 14.5002 10C14.898 10 15.2795 10.158 15.5608 10.4393C15.8421 10.7206 16.0002 11.1022 16.0002 11.5C16.0002 11.8978 15.8421 12.2794 15.5608 12.5607C15.2795 12.842 14.898 13 14.5002 13C14.1024 13 13.7208 12.842 13.4395 12.5607C13.1582 12.2794 13.0002 11.8978 13.0002 11.5ZM11.1362 13.103C11.0688 12.9951 10.975 12.9062 10.8638 12.8445C10.7525 12.7829 10.6274 12.7505 10.5002 12.7505C10.373 12.7505 10.2479 12.7829 10.1366 12.8445C10.0253 12.9062 9.9316 12.9951 9.86418 13.103L7.36418 17.103C7.29335 17.2165 7.25418 17.3469 7.25074 17.4807C7.24729 17.6144 7.27969 17.7467 7.34457 17.8637C7.40946 17.9807 7.50447 18.0782 7.61975 18.1462C7.73502 18.2141 7.86638 18.2499 8.00018 18.25H16.0002C16.1395 18.25 16.276 18.2112 16.3945 18.138C16.513 18.0648 16.6087 17.96 16.671 17.8354C16.7333 17.7108 16.7597 17.5714 16.7471 17.4326C16.7346 17.2939 16.6837 17.1614 16.6002 17.05L15.1002 15.05C15.0303 14.9569 14.9397 14.8813 14.8356 14.8292C14.7314 14.7771 14.6166 14.75 14.5002 14.75C14.3837 14.75 14.2689 14.7771 14.1648 14.8292C14.0606 14.8813 13.97 14.9569 13.9002 15.05L13.0562 16.175L11.1362 13.103Z" fill="black"/>
<path fill-rule="evenodd" clip-rule="evenodd" d="M7 2.25C6.27065 2.25 5.57118 2.53973 5.05546 3.05546C4.53973 3.57118 4.25 4.27065 4.25 5V19C4.25 19.7293 4.53973 20.4288 5.05546 20.9445C5.57118 21.4603 6.27065 21.75 7 21.75H17C17.7293 21.75 18.4288 21.4603 18.9445 20.9445C19.4603 20.4288 19.75 19.7293 19.75 19V7.968C19.75 7.587 19.626 7.217 19.396 6.913L16.398 2.945C16.2349 2.72912 16.0239 2.554 15.7817 2.43341C15.5395 2.31282 15.2726 2.25004 15.002 2.25H7ZM5.75 5C5.75 4.31 6.31 3.75 7 3.75H14.25V8.147C14.25 8.561 14.586 8.897 15 8.897H18.25V19C18.25 19.69 17.69 20.25 17 20.25H7C6.31 20.25 5.75 19.69 5.75 19V5Z" fill="black"/>
</svg>
